<svg xmlns="http://www.w3.org/2000/svg" width="512" height="512" viewBox="0 0 108 108" role="img" aria-label="Medeo logo preview">
  <defs>
    <linearGradient id="bg" x1="0" y1="0" x2="108" y2="108" gradientUnits="userSpaceOnUse">
      <stop offset="0" stop-color="#101827"/>
      <stop offset="1" stop-color="#173B56"/>
    </linearGradient>
  </defs>
  <rect width="108" height="108" fill="url(#bg)"/>
  <path fill="#7AA2F7" fill-opacity="0.28" d="M0 0H48L18 108H0Z"/>
  <path fill="#9ECE6A" fill-opacity="0.18" d="M0 84H108V108H0Z"/>
  <path fill="#0F172A" d="M24 24H84C89.5 24 94 28.5 94 34V76C94 81.5 89.5 86 84 86H24C18.5 86 14 81.5 14 76V34C14 28.5 18.5 24 24 24Z"/>
  <path fill="#7AA2F7" fill-opacity="0.34" d="M24 24H59L36 86H24C18.5 86 14 81.5 14 76V34C14 28.5 18.5 24 24 24Z"/>
  <path fill="#EAF6FF" d="M30 74V34H39V38C42 34.8 45.8 33.4 50 33.4C55.3 33.4 59.2 35.9 61.2 40.4C64.4 35.8 68.8 33.4 74.2 33.4C81.7 33.4 86 38.7 86 47.8V74H77V49.8C77 45.4 75.1 43.2 71.5 43.2C67.6 43.2 65.4 46 65.4 50.9V74H56.4V49.8C56.4 45.4 54.5 43.2 50.9 43.2C47 43.2 44.8 46 44.8 50.9V74H30Z"/>
  <path fill="#F7768E" d="M54 51L70 59.5L54 68Z"/>
  <path fill="#9ECE6A" fill-opacity="0.88" d="M30 78H84V82H30Z"/>
</svg>
